<svg xmlns="http://www.w3.org/2000/svg" width="28" height="28" viewBox="0 0 24 24"><g><rect fill="#181717" width="24" height="24" rx="4"/><path fill="#fff" d="M12 2C6.48 2 2 6.48 2 12c0 4.42 2.87 8.17 6.84 9.5.5.09.66-.22.66-.48 0-.24-.01-.87-.01-1.7-2.78.6-3.37-1.34-3.37-1.34-.45-1.14-1.1-1.44-1.1-1.44-.9-.62.07-.6.07-.6 1 .07 1.53 1.03 1.53 1.03.89 1.52 2.34 1.08 2.91.82.09-.64.35-1.08.63-1.33-2.22-.25-4.56-1.11-4.56-4.95 0-1.09.39-1.98 1.03-2.68-.1-.25-.45-1.28.1-2.67 0 0 .84-.27 2.75 1.02A9.56 9.56 0 0 1 12 6.8c.85.004 1.71.115 2.51.337 1.91-1.29 2.75-1.02 2.75-1.02.55 1.39.2 2.42.1 2.67.64.7 1.03 1.59 1.03 2.68 0 3.85-2.34 4.7-4.57 4.95.36.32.68.94.68 1.89 0 1.36-.01 2.46-.01 2.79 0 .27.16.58.67.48C19.14 20.17 22 16.42 22 12c0-5.52-4.48-10-10-10z"/></g></svg>
